<?xml version="1.0" encoding="UTF-8" standalone="no"?>
<!DOCTYPE svg PUBLIC "-//W3C//DTD SVG 1.1//EN"
 "http://www.w3.org/Graphics/SVG/1.1/DTD/svg11.dtd">
<!-- Generated by graphviz version 2.40.1 (20161225.0304)
 -->
<!-- Title: mygraph Pages: 1 -->
<svg width="272pt" height="260pt"
 viewBox="0.00 0.00 272.00 260.00" xmlns="http://www.w3.org/2000/svg" xmlns:xlink="http://www.w3.org/1999/xlink">
<g id="graph0" class="graph" transform="scale(1 1) rotate(0) translate(4 256)">
<title>mygraph</title>
<polygon fill="#ffffff" stroke="transparent" points="-4,4 -4,-256 268,-256 268,4 -4,4"/>
<!-- nodeid1 -->
<g id="node1" class="node">
<title>nodeid1</title>
<path fill="none" stroke="#000000" d="M76,-180C76,-180 30,-180 30,-180 24,-180 18,-174 18,-168 18,-168 18,-156 18,-156 18,-150 24,-144 30,-144 30,-144 76,-144 76,-144 82,-144 88,-150 88,-156 88,-156 88,-168 88,-168 88,-174 82,-180 76,-180"/>
<text text-anchor="start" x="26" y="-158.3" font-family="Helvetica,sans-Serif" font-size="14.00" fill="#000000">Node N1</text>
</g>
<!-- peer1 -->
<g id="node5" class="node">
<title>peer1</title>
<path fill="none" stroke="#000000" d="M87,-108C87,-108 19,-108 19,-108 13,-108 7,-102 7,-96 7,-96 7,-84 7,-84 7,-78 13,-72 19,-72 19,-72 87,-72 87,-72 93,-72 99,-78 99,-84 99,-84 99,-96 99,-96 99,-102 93,-108 87,-108"/>
<text text-anchor="start" x="15" y="-86.3" font-family="Helvetica,sans-Serif" font-size="14.00" fill="#000000">Peer Node 1</text>
</g>
<!-- nodeid1&#45;&gt;peer1 -->
<g id="edge4" class="edge">
<title>nodeid1&#45;&gt;peer1</title>
<path fill="none" stroke="#000000" d="M53,-143.8314C53,-136.131 53,-126.9743 53,-118.4166"/>
<polygon fill="#000000" stroke="#000000" points="56.5001,-118.4132 53,-108.4133 49.5001,-118.4133 56.5001,-118.4132"/>
</g>
<!-- nodeid2 -->
<g id="node2" class="node">
<title>nodeid2</title>
<path fill="none" stroke="#000000" d="M164,-180C164,-180 118,-180 118,-180 112,-180 106,-174 106,-168 106,-168 106,-156 106,-156 106,-150 112,-144 118,-144 118,-144 164,-144 164,-144 170,-144 176,-150 176,-156 176,-156 176,-168 176,-168 176,-174 170,-180 164,-180"/>
<text text-anchor="start" x="114" y="-158.3" font-family="Helvetica,sans-Serif" font-size="14.00" fill="#000000">Node N2</text>
</g>
<!-- peer2 -->
<g id="node6" class="node">
<title>peer2</title>
<path fill="none" stroke="#000000" d="M197,-108C197,-108 129,-108 129,-108 123,-108 117,-102 117,-96 117,-96 117,-84 117,-84 117,-78 123,-72 129,-72 129,-72 197,-72 197,-72 203,-72 209,-78 209,-84 209,-84 209,-96 209,-96 209,-102 203,-108 197,-108"/>
<text text-anchor="start" x="125" y="-86.3" font-family="Helvetica,sans-Serif" font-size="14.00" fill="#000000">Peer Node 2</text>
</g>
<!-- nodeid2&#45;&gt;peer2 -->
<g id="edge5" class="edge">
<title>nodeid2&#45;&gt;peer2</title>
<path fill="none" stroke="#000000" d="M146.5515,-143.8314C148.9303,-136.0463 151.7638,-126.7729 154.4033,-118.1347"/>
<polygon fill="#000000" stroke="#000000" points="157.7987,-118.9996 157.3737,-108.4133 151.1042,-116.954 157.7987,-118.9996"/>
</g>
<!-- nodeid3 -->
<g id="node3" class="node">
<title>nodeid3</title>
<path fill="none" stroke="#000000" d="M252,-180C252,-180 206,-180 206,-180 200,-180 194,-174 194,-168 194,-168 194,-156 194,-156 194,-150 200,-144 206,-144 206,-144 252,-144 252,-144 258,-144 264,-150 264,-156 264,-156 264,-168 264,-168 264,-174 258,-180 252,-180"/>
<text text-anchor="start" x="202" y="-158.3" font-family="Helvetica,sans-Serif" font-size="14.00" fill="#000000">Node N3</text>
</g>
<!-- nodeid3&#45;&gt;peer2 -->
<g id="edge6" class="edge">
<title>nodeid3&#45;&gt;peer2</title>
<path fill="none" stroke="#000000" d="M212.3454,-143.8314C204.5886,-135.3694 195.2198,-125.1489 186.739,-115.8971"/>
<polygon fill="#000000" stroke="#000000" points="189.2162,-113.4198 179.8788,-108.4133 184.0561,-118.1499 189.2162,-113.4198"/>
</g>
<!-- rootnode -->
<g id="node4" class="node">
<title>rootnode</title>
<path fill="none" stroke="#000000" d="M171,-252C171,-252 111,-252 111,-252 105,-252 99,-246 99,-240 99,-240 99,-228 99,-228 99,-222 105,-216 111,-216 111,-216 171,-216 171,-216 177,-216 183,-222 183,-228 183,-228 183,-240 183,-240 183,-246 177,-252 171,-252"/>
<text text-anchor="start" x="107" y="-230.3" font-family="Helvetica,sans-Serif" font-size="14.00" fill="#000000">Initial Node</text>
</g>
<!-- rootnode&#45;&gt;nodeid1 -->
<g id="edge1" class="edge">
<title>rootnode&#45;&gt;nodeid1</title>
<path fill="none" stroke="#000000" d="M118.7939,-215.8314C107.955,-206.9632 94.7556,-196.1637 83.0322,-186.5718"/>
<polygon fill="#000000" stroke="#000000" points="85.155,-183.7864 75.199,-180.1628 80.7223,-189.2041 85.155,-183.7864"/>
</g>
<!-- rootnode&#45;&gt;nodeid2 -->
<g id="edge2" class="edge">
<title>rootnode&#45;&gt;nodeid2</title>
<path fill="none" stroke="#000000" d="M141,-215.8314C141,-208.131 141,-198.9743 141,-190.4166"/>
<polygon fill="#000000" stroke="#000000" points="144.5001,-190.4132 141,-180.4133 137.5001,-190.4133 144.5001,-190.4132"/>
</g>
<!-- rootnode&#45;&gt;nodeid3 -->
<g id="edge3" class="edge">
<title>rootnode&#45;&gt;nodeid3</title>
<path fill="none" stroke="#000000" d="M163.2061,-215.8314C174.045,-206.9632 187.2444,-196.1637 198.9678,-186.5718"/>
<polygon fill="#000000" stroke="#000000" points="201.2777,-189.2041 206.801,-180.1628 196.845,-183.7864 201.2777,-189.2041"/>
</g>
<!-- termnode -->
<g id="node7" class="node">
<title>termnode</title>
<path fill="none" stroke="#000000" d="M94,-36C94,-36 12,-36 12,-36 6,-36 0,-30 0,-24 0,-24 0,-12 0,-12 0,-6 6,0 12,0 12,0 94,0 94,0 100,0 106,-6 106,-12 106,-12 106,-24 106,-24 106,-30 100,-36 94,-36"/>
<text text-anchor="start" x="8" y="-14.3" font-family="Helvetica,sans-Serif" font-size="14.00" fill="#000000">Terminal Node</text>
</g>
<!-- peer1&#45;&gt;termnode -->
<g id="edge7" class="edge">
<title>peer1&#45;&gt;termnode</title>
<path fill="none" stroke="#000000" d="M53,-71.8314C53,-64.131 53,-54.9743 53,-46.4166"/>
<polygon fill="#000000" stroke="#000000" points="56.5001,-46.4132 53,-36.4133 49.5001,-46.4133 56.5001,-46.4132"/>
</g>
<!-- peer2&#45;&gt;termnode -->
<g id="edge8" class="edge">
<title>peer2&#45;&gt;termnode</title>
<path fill="none" stroke="#000000" d="M135.2424,-71.8314C121.303,-62.7074 104.2402,-51.539 89.2769,-41.7449"/>
<polygon fill="#000000" stroke="#000000" points="91.0326,-38.711 80.7488,-36.1628 87.199,-44.5679 91.0326,-38.711"/>
</g>
</g>
</svg>
